# xmcd
#
# Track frame offsets:
#	150
#	16710
#	32315
#	47415
#	65790
#	77535
#	89780
#	103300
#	119405
#	134445
#	150195
#	166500
#	179570
#
# Disc length: 2699 seconds
# Revision: 0
# Processed by: cddbd v1.5.2PL0 Copyright (c) Steve Scherf et al.
# Submitted via: dBpowerAMP V12.0
#
DISCID=9b0a890d
DTITLE=Carmem Costa - Tantos Caminhos
DYEAR=2010
DGENRE=Brazil
TTITLE0=Pressentimento
TTITLE1=Quase
TTITLE2=Só Vendo Que Beleza
TTITLE3=Tantos Caminhos
TTITLE4=Jarro da Saudade
TTITLE5=Xamego
TTITLE6=Defesa
TTITLE7=Esse Caso
TTITLE8=Obsessão
TTITLE9=Eu Sou A Outra
TTITLE10=Ronda
TTITLE11=Tombamento
TTITLE12=Marcha do Cordão da Bola Preta, Tem Nêgo Bebo Aí e Cachaça
EXTD=
EXTT0=
EXTT1=
EXTT2=
EXTT3=
EXTT4=
EXTT5=
EXTT6=
EXTT7=
EXTT8=
EXTT9=
EXTT10=
EXTT11=
EXTT12=
PLAYORDER=
